<svg width="24" height="24" viewBox="0 0 24 24" fill="none" xmlns="http://www.w3.org/2000/svg"><path fill-rule="evenodd" clip-rule="evenodd" d="M8.5 7H5a2 2 0 0 1-2-2V4a2 2 0 0 1 2-2h3.5A1.5 1.5 0 0 1 10 3.5h9.5a1 1 0 1 1 0 2H10A1.5 1.5 0 0 1 8.5 7zM4 20v1a1.5 1.5 0 0 0 3 0v-1h10v1a1.5 1.5 0 0 0 3 0v-1c.613-.306 1-.933 1-1.618V15a1 1 0 0 0-1-1l.641-.641a.704.704 0 0 0-.72-1.166L19 12.5l-.304-1.368A4 4 0 0 0 14.791 8H9.21a4 4 0 0 0-3.905 3.132L5 12.5l-.92-.307a.704.704 0 0 0-.721 1.166L4 14a1 1 0 0 0-1 1v3.382c0 .685.387 1.312 1 1.618zM6 5.5v-2a.5.5 0 0 0-1 0v2a.5.5 0 0 0 1 0zM7.123 14h9.754a.5.5 0 0 0 .488-.608l-.343-1.543A3 3 0 0 0 14.094 9.5H9.907a3 3 0 0 0-2.929 2.35l-.343 1.542a.5.5 0 0 0 .488.608zM6.5 18h2a1 1 0 1 0 0-2h-2a1 1 0 1 0 0 2zm11 0h-2a1 1 0 1 1 0-2h2a1 1 0 1 1 0 2z" fill="#087E8B"/></svg>