<svg xmlns="http://www.w3.org/2000/svg" width="138" height="139" viewBox="0 0 138 139"><g fill="none"><path fill="#92D0EE" d="M119.48 103.5s10.62-1.63 10.35-23.59l-7.45-.79"/><path fill="#123456" d="M119.48 104.5a1.003 1.003 0 01-.16-2c.12 0 9.48-1.88 9.51-21.7l-6.56-.69a1 1 0 11.21-1.99l7.45.79a1 1 0 01.89 1c.28 22.57-10.73 24.52-11.2 24.59h-.14z"/><path fill="#92D0EE" d="M99.84 103.35s-11.54-2.47-9.36-23.44l7.45-.79"/><path fill="#123456" d="M99.84 104.35h-.21c-.51-.11-12.39-2.9-10.16-24.52a1 1 0 01.89-.89l7.45-.79a1.005 1.005 0 11.21 2l-6.64.7c-1.68 19.11 8.56 21.53 8.67 21.55a1.005 1.005 0 11-.21 2v-.05z"/><path fill="#92D0EE" d="M53.22 128.37H1c0-9.588 7.772-17.36 17.36-17.36h17.5c9.588 0 17.36 7.772 17.36 17.36z"/><path fill="#2A9FD9" d="M34.9 124.88H17.31a16.56 16.56 0 01-13.47-6.91 16.51 16.51 0 00-3.12 9.68v.29h50.76v-.29a16.51 16.51 0 00-3.12-9.68 16.56 16.56 0 01-13.46 6.91z" opacity=".3"/><path fill="#123456" d="M53.22 129.37H1a1 1 0 01-1-1c.011-10.135 8.225-18.349 18.36-18.36h17.5c10.135.011 18.349 8.225 18.36 18.36a1 1 0 01-1 1zm-51.19-2h50.16c-.538-8.627-7.687-15.35-16.33-15.36h-17.5c-8.643.01-15.792 6.733-16.33 15.36z"/><path fill="#D9F0F9" d="M27.11 117.97a6.32 6.32 0 01-6.37-6.32v-7.63h12.69v7.63a6.32 6.32 0 01-6.32 6.32z"/><path fill="#123456" d="M27.11 118.97a7.33 7.33 0 01-7.32-7.32v-7.63a1 1 0 011-1h12.69a1 1 0 011 1v7.63a7.33 7.33 0 01-7.37 7.32zm-5.32-14v6.63a5.325 5.325 0 0010.65 0v-6.63H21.79z"/><path fill="#2A9FD9" d="M20.79 104h12.65a6.32 6.32 0 01-6.32 6.32 6.32 6.32 0 01-6.33-6.32z" opacity=".3"/><rect width="6.52" height="10.24" x="7.1" y="82.92" fill="#D9F0F9" rx="3.26" transform="rotate(180 10.36 88.04)"/><path fill="#123456" d="M10.36 94.17a4.26 4.26 0 01-4.26-4.26v-3.72a4.26 4.26 0 018.52 0v3.72a4.26 4.26 0 01-4.26 4.26zm0-10.24a2.26 2.26 0 00-2.26 2.26v3.72a2.26 2.26 0 004.52 0v-3.72a2.26 2.26 0 00-2.26-2.26z"/><path fill="#D9F0F9" d="M27.32 107.48h-.41c-8.439 0-15.28-6.841-15.28-15.28V81.86a15.48 15.48 0 1130.96 0V92.2c0 8.435-6.835 15.274-15.27 15.28z"/><path fill="#123456" d="M27.31 108.5h-.41c-8.993-.011-16.276-7.307-16.27-16.3V81.86c0-9.113 7.387-16.5 16.5-16.5s16.5 7.387 16.5 16.5V92.2a16.29 16.29 0 01-16.32 16.3zm-.21-41.09c-7.977.016-14.443 6.473-14.47 14.45V92.2c-.006 7.888 6.382 14.289 14.27 14.3h.41a14.29 14.29 0 0014.28-14.3V81.86c-.011-7.993-6.487-14.469-14.48-14.48l-.01.03z"/><path fill="#92D0EE" d="M44.14 78.59L42.48 94.2l-1.05-10.6c-2.37-.85-4.11-8.29-4.11-8.29-9.21 3.71-20.7 0-20.7 0s-2.67 8.47-4.14 9.19l-.78 9-2.4-12.49s-3.18-8.79-1.59-14.93l2.54 1.82s1.69-10.64 15.86-12.4c0 0-.11 2.52 3.65 3.42 3.76.9 11.61.23 11.61.23s-2.28.57 1.49 3.39c3.77 2.82 1.28 16.05 1.28 16.05z"/><path fill="#123456" d="M42.48 95.2a1 1 0 01-1-.9l-1-10.08c-1.95-1.34-3.28-5.45-3.86-7.59-7.73 2.63-16.47.69-19.35-.09-1 3-2.47 7.07-3.83 8.48l-.75 8.59a1.001 1.001 0 01-2 .1L8.32 81.29c-.33-.95-3.17-9.32-1.59-15.45a1 1 0 011.55-.56l1.38 1c1.1-3.16 4.82-10.36 16.32-11.78a1 1 0 011.13 1c0 .16.09 1.73 2.89 2.41 3.56.85 11.22.21 11.3.2a1 1 0 01.46 1.92 6 6 0 001.72 1.66c4.11 3.08 2 15.45 1.66 17L43.48 94.3a1 1 0 01-1 .9zM8.39 67.82c-.74 5.64 1.81 12.79 1.84 12.87a.94.94 0 010 .15l1 5.42.25-1.82a1 1 0 01.55-.81c.71-.51 2.45-4.87 3.62-8.62a1 1 0 011.26-.65c.11 0 11.26 3.55 20 0a1 1 0 011.35.7c.78 3.32 2.32 7.16 3.47 7.57a1 1 0 01.66.84l.1 1 .64-6v-.08c.92-4.9 1.49-13.33-.89-15.11-1.56-1.17-2.39-2.16-2.55-3.07-2.58.15-7.39.3-10.19-.37-2.8-.67-3.85-2.2-4.21-3.27-12.37 2-14 11.1-14.08 11.5a1 1 0 01-1.57.65l-1.25-.9z"/><path fill="#92D0EE" d="M101.37 111h17.5a17.36 17.36 0 0117.36 17.36H84A17.36 17.36 0 01101.37 111z"/><path fill="#2A9FD9" d="M119.65 124.88h-17.59a16.56 16.56 0 01-13.47-6.91 16.51 16.51 0 00-3.11 9.67v.29h50.77v-.29a16.51 16.51 0 00-3.12-9.68 16.56 16.56 0 01-13.48 6.92z" opacity=".3"/><path fill="#123456" d="M136.23 129.37H84.01a1 1 0 01-1-1c.011-10.135 8.225-18.349 18.36-18.36h17.5c10.135.011 18.349 8.225 18.36 18.36a1 1 0 01-1 1zm-51.19-2h50.16c-.538-8.627-7.687-15.35-16.33-15.36h-17.5c-8.643.01-15.792 6.733-16.33 15.36z"/><path fill="#92D0EE" d="M126.74 122.4v5.55"/><path fill="#123456" d="M126.74 128.95a1 1 0 01-1-1v-5.55a1 1 0 112 0v5.55a1 1 0 01-1 1z"/><path fill="#92D0EE" d="M10.93 122.37v5.56"/><path fill="#123456" d="M10.93 128.93a1 1 0 01-1-1v-5.56a1 1 0 112 0v5.56a1 1 0 01-1 1z"/><path fill="#D9F0F9" d="M103.8 104h12.65v7.63a6.32 6.32 0 11-12.64 0V104h-.01z"/><path fill="#123456" d="M110.12 118.97a7.33 7.33 0 01-7.32-7.32v-7.63a1 1 0 011-1h12.68a1 1 0 011 1v7.63a7.33 7.33 0 01-7.36 7.32zm-5.32-14v6.63a5.325 5.325 0 0010.65 0v-6.63H104.8z"/><path fill="#2A9FD9" d="M103.8 104h12.65a6.32 6.32 0 01-6.32 6.32 6.32 6.32 0 01-6.33-6.32z" opacity=".3"/><rect width="6.52" height="10.24" x="123.61" y="82.93" fill="#D9F0F9" rx="3.26"/><path fill="#123456" d="M126.87 94.17a4.26 4.26 0 01-4.26-4.26v-3.72a4.26 4.26 0 018.52 0v3.72a4.26 4.26 0 01-4.26 4.26zm0-10.24a2.26 2.26 0 00-2.26 2.26v3.72a2.26 2.26 0 104.52 0v-3.72a2.26 2.26 0 00-2.26-2.26z"/><path fill="#D9F0F9" d="M110.12 66.38c8.55 0 15.48 6.93 15.48 15.48V92.2a15.28 15.28 0 01-15.28 15.28h-.41c-8.435-.006-15.27-6.845-15.27-15.28V81.86c0-8.55 6.93-15.48 15.48-15.48z"/><path fill="#123456" d="M110.32 108.5h-.41c-8.993-.011-16.276-7.307-16.27-16.3V81.86c0-9.113 7.387-16.5 16.5-16.5s16.5 7.387 16.5 16.5V92.2a16.29 16.29 0 01-16.32 16.3zm-.21-41.09c-7.993.011-14.469 6.487-14.48 14.48V92.2a14.29 14.29 0 0014.28 14.3h.41a14.29 14.29 0 0014.28-14.3V81.86c-.011-7.993-6.487-14.469-14.48-14.48l-.01.03z"/><path fill="#92D0EE" d="M98.3 76.34s3.38 5.47 13.36 6l-2.18-2.45s15.57 4.18 22.61.52c0 0 1.26-21.47-19-22.38-20.26-.91-21.22 16.47-21.22 16.47l1.8 5 4.63-3.16z"/><path fill="#123456" d="M111.66 83.36h-.06c-8.11-.45-12.1-4-13.52-5.67l-3.85 2.61a1 1 0 01-1.5-.49l-1.79-5a1 1 0 01-.06-.39c0-.18 1.21-18.32 22.22-17.37 6.06.27 10.88 2.35 14.32 6.16 6.2 6.87 5.69 16.85 5.66 17.28a1 1 0 01-.54.83c-5.41 2.81-15.24 1.31-20.24.27l.11.13a1 1 0 01-.75 1.66v-.02zm-12.51-7.55c.12.19 2.72 4.15 10.05 5.29l-.49-.55a1 1 0 011-1.63c.15 0 14.51 3.83 21.37.85 0-2.16-.34-9.9-5.17-15.25-3.07-3.4-7.42-5.25-12.92-5.49-18.16-.81-20 13.37-20.12 15.29l1.29 3.6 3.58-2.42a1 1 0 01.77-.15 1 1 0 01.64.46z"/><path fill="#92D0EE" d="M91.02 63.31s5.09 8.48 5.23 18.28c.14 9.8 0 14.51-3.63 19.41s-.38 6.94-1.6 11.43c-1.22 4.49-8.07 6.63-7.93 8.65.14 2.02-7.66-2.16-7.39-5.24.27-3.08 7.11-47.14 7.11-47.14l8.21-5.39zm-44.38 0s-5.09 8.48-5.23 18.28c-.14 9.8 0 14.51 3.63 19.41s.38 6.94 1.6 11.43c1.22 4.49 8.07 6.63 7.93 8.65-.14 2.02 7.66-2.16 7.39-5.24-.27-3.08-7.12-47.14-7.12-47.14l-8.2-5.39z"/><path fill="#123456" d="M83.48 122.1a1 1 0 01-1-.94c-.1-1.44 1.37-2.46 3.23-3.76 1.86-1.3 4.33-3 4.94-5.22a8.75 8.75 0 000-4.1 8.47 8.47 0 011.78-7.66c3.56-4.69 3.65-9.15 3.51-18.79-.13-9.4-5.16-17.69-5.21-17.77a1 1 0 011.7-1c.22.36 5.37 8.83 5.51 18.79.14 9.96 0 14.83-3.92 20a6.58 6.58 0 00-1.4 6.13 10.65 10.65 0 01-.07 5c-.8 2.89-3.53 4.79-5.72 6.33-.91.64-2.29 1.6-2.38 2a1 1 0 01-.93 1.05l-.04-.06zm-29.26-.02h-.07a1 1 0 01-.93-1.07c-.08-.38-1.46-1.35-2.38-2-2.19-1.53-4.92-3.44-5.72-6.33a10.66 10.66 0 01-.07-5 6.57 6.57 0 00-1.4-6.13c-4-5.21-4.06-10.17-3.92-20 .14-9.83 5.29-18.44 5.51-18.79a1 1 0 011.7 1c-.05.08-5.08 8.37-5.21 17.77-.14 9.64 0 14.1 3.51 18.79a8.47 8.47 0 011.78 7.66 8.75 8.75 0 000 4.1c.61 2.2 3 3.88 4.94 5.22 1.94 1.34 3.32 2.32 3.23 3.76a1 1 0 01-.97 1.02z"/><rect width="8.31" height="13.05" x="86.04" y="80.07" fill="#D9F0F9" rx="4.15"/><path fill="#123456" d="M90.19 94.12a5.16 5.16 0 01-5.15-5.15v-4.75a5.155 5.155 0 1110.31 0v4.75a5.16 5.16 0 01-5.16 5.15zm0-13.05a3.16 3.16 0 00-3.15 3.15v4.75a3.155 3.155 0 106.31 0v-4.75a3.16 3.16 0 00-3.16-3.15z"/><path fill="#92D0EE" d="M98.04 124.93a21.72 21.72 0 00-17.66-9.07H57.31c-12.01.006-21.744 9.74-21.75 21.75v.38h66.57v-.38a21.65 21.65 0 00-4.09-12.68z"/><path fill="#2A9FD9" d="M80.37 134H57.31a21.72 21.72 0 01-17.66-9.07 21.65 21.65 0 00-4.09 12.69v.38h66.57v-.38a21.65 21.65 0 00-4.09-12.69A21.72 21.72 0 0180.37 134z" opacity=".3"/><path fill="#123456" d="M102.13 139H35.55a1 1 0 01-1-1v-.38c.017-12.558 10.192-22.733 22.75-22.75h23.07c12.558.017 22.733 10.192 22.75 22.75v.38a1 1 0 01-.99 1zm-65.56-2h64.55c-.35-11.21-9.534-20.12-20.75-20.13H57.31c-11.216.01-20.4 8.92-20.75 20.13h.01z"/><path fill="#D9F0F9" d="M60.78 106.94H76.9v9.73a8.06 8.06 0 01-16.12 0v-9.73z"/><path fill="#123456" d="M68.84 125.74a9.07 9.07 0 01-9.06-9.06v-9.73a1 1 0 011-1H76.9a1 1 0 011 1v9.73a9.07 9.07 0 01-9.06 9.06zm-7.06-17.8v8.73a7.06 7.06 0 0014.12 0v-8.73H61.78z"/><path fill="#2A9FD9" d="M60.78 106.94H76.9a8.06 8.06 0 01-16.12 0z" opacity=".3"/><rect width="8.31" height="13.05" x="43.38" y="80.07" fill="#D9F0F9" rx="4.15"/><path fill="#123456" d="M47.48 94.12a5.16 5.16 0 01-5.15-5.15v-4.75a5.155 5.155 0 1110.31 0v4.75a5.16 5.16 0 01-5.16 5.15zm0-13.05a3.16 3.16 0 00-3.15 3.15v4.75a3.155 3.155 0 106.31 0v-4.75a3.16 3.16 0 00-3.16-3.15z"/><path fill="#D9F0F9" d="M68.84 59c10.893-.006 19.729 8.817 19.74 19.71v13.18a19.47 19.47 0 01-19.48 19.47h-.52a19.47 19.47 0 01-19.47-19.47V78.71C49.121 67.821 57.951 59 68.84 59z"/><path fill="#123456" d="M69.1 112.36h-.52c-11.298-.017-20.453-9.172-20.47-20.47V78.71c0-11.452 9.283-20.735 20.735-20.735S89.58 67.258 89.58 78.71v13.18c-.017 11.302-9.178 20.459-20.48 20.47zm-.26-52.39c-10.341.017-18.719 8.399-18.73 18.74v13.18c.011 10.196 8.274 18.459 18.47 18.47h.52c10.2-.006 18.469-8.27 18.48-18.47V78.71c-.017-10.341-8.399-18.719-18.74-18.73v-.01z"/><path fill="#92D0EE" d="M53.88 80.36h30.11l2.29-6.47 3.91 6.18 1.09-15-.27-1.8A28.27 28.27 0 0068.84 52.5a26.84 26.84 0 00-22.2 10.79l-.36 2.21.58.48 1.18 14.37 3.22-6.18 2.62 6.19z"/><path fill="#123456" d="M45.64 65.09a1 1 0 01-.86-1.51c.32-.53 8-13.06 24.06-13.06 16.64-.02 23.64 12.31 23.91 12.83a1.008 1.008 0 11-1.75 1A25.81 25.81 0 0068.84 52.5c-14.88 0-22.27 12-22.36 12.11a1 1 0 01-.84.48zm38.35 16.27H53.88a1 1 0 01-.94-.65c-.57-1.5-1.2-3.11-1.68-4.29-.58.94-1.49 2.29-2.93 4.25a1 1 0 01-.72.4 1 1 0 01-.78-.27l-1.54-1.47a1 1 0 111.38-1.45l.71.68a32.11 32.11 0 002.87-4.46 1.09 1.09 0 01.83-1c.93-.18 1.05-.21 3.49 6.23h28.72l2-5.8a1 1 0 01.87-.66 1 1 0 011 .53 61.11 61.11 0 003.17 5.38 7.46 7.46 0 00.68-1 1 1 0 011.73 1c-.9 1.56-1.81 2.33-2.63 2.24-.47 0-1-.09-3.63-4.73l-1.54 4.35a1 1 0 01-.95.72zm30.97 19.02a1 1 0 01-.59-.2c-5.29-3.9-9.12-.25-9.28-.09a1 1 0 11-1.4-1.43c.05-.05 5.22-5 11.87-.09a1 1 0 01-.59 1.8l-.01.01zm-87.95-.01a9.11 9.11 0 01-5.89-2.26 1 1 0 011.4-1.43c.16.16 4 3.78 9.28-.09a1.001 1.001 0 011.19 1.61 10 10 0 01-5.98 2.17z"/><path fill="#92D0EE" d="M61.96 98.22h12.66s-.07 6.75-6.22 6.75c-6.15 0-6.44-6.75-6.44-6.75z"/><path fill="#123456" d="M68.4 105.97c-5.63 0-7.33-5-7.44-7.71a1 1 0 011-1h12.66a1 1 0 011 1c-.02 2.64-1.57 7.71-7.22 7.71zm-5.29-6.75c.34 1.67 1.49 4.75 5.29 4.75s4.83-3.09 5.12-4.75H63.11z"/><path fill="#92D0EE" d="M90.2 130.35V138"/><path fill="#123456" d="M90.2 139a1 1 0 01-1-1v-7.65a1 1 0 112 0V138a1 1 0 01-1 1z"/><path fill="#92D0EE" d="M47.91 130.35V138"/><path fill="#123456" d="M47.91 139a1 1 0 01-1-1v-7.65a1 1 0 112 0V138a1 1 0 01-1 1z"/><path fill="#FAA91A" d="M113.77 45.31s5.5 8.29 0 14.62c0 0-4.38-11.46-14.25-12.11"/><path fill="#123456" d="M113.77 60.94h-.17a1 1 0 01-.76-.63c0-.11-4.28-10.87-13.38-11.47a1.002 1.002 0 01.13-2c8.17.54 12.72 7.81 14.39 11.13 3.26-5.49-1-12-1-12.09a1.003 1.003 0 111.67-1.11c.06.09 5.85 9-.08 15.83a1 1 0 01-.8.34z"/><path fill="#FAA91A" d="M25.14 45.31s-5.5 8.29 0 14.62c0 0 4.38-11.46 14.25-12.11"/><path fill="#123456" d="M25.14 60.94a1 1 0 01-.76-.34c-5.93-6.83-.14-15.74-.08-15.83a1 1 0 011.67 1.1c-.19.29-4.3 6.66-1 12.1 1.66-3.32 6.22-10.59 14.39-11.13a1.002 1.002 0 11.13 2c-9.13.6-13.34 11.36-13.38 11.47a1 1 0 01-.76.63h-.21z"/><path fill="#FAA91A" d="M61.96 48.09l6.88 10.88 6.09-11.42"/><path fill="#123456" d="M68.84 59.98a1 1 0 01-.85-.47l-6.88-10.89a1 1 0 111.69-1.07l6 9.43 5.28-9.9a1.002 1.002 0 011.77.94l-6.13 11.43a1 1 0 01-.85.53h-.03z"/><path fill="#FAA91A" d="M104.06 43.66H33.48c-9.84-.035-18.21-7.186-19.78-16.9a19.89 19.89 0 00-.27 3.15c.06 11.02 8.98 19.94 20 20h70.61c11.02-.06 19.94-8.98 20-20a19.89 19.89 0 00-.27-3.15c-1.566 9.688-9.896 16.83-19.71 16.9z"/><path fill="#FFCC05" d="M104.06 9.86H33.48c-9.84.035-18.21 7.186-19.78 16.9 1.57 9.714 9.94 16.865 19.78 16.9h70.61c9.84-.035 18.21-7.186 19.78-16.9-1.572-9.725-9.959-16.88-19.81-16.9z"/><path fill="#123456" d="M25.18 49.16a1 1 0 01-.41-.09 21 21 0 018.71-40.21h70.61a21 21 0 0110.1 39.5 1.008 1.008 0 11-1-1.75 19 19 0 00-9.14-35.75H33.48a19 19 0 00-7.85 36.4 1 1 0 01-.42 1.91l-.03-.01z"/><path fill="#123456" d="M64.42 50.96H33.48a21.1 21.1 0 01-3.3-.26 1.012 1.012 0 01.31-2 19.07 19.07 0 003 .23h31a1 1 0 010 2l-.07.03zm39.64 0h-31.3a1 1 0 010-2h31.31a19 19 0 003.91-.46 1.02 1.02 0 11.41 2 21 21 0 01-4.33.46z"/><path fill="#2A9FD9" d="M34.78 21.78L37.37 27l5.76.84-4.17 4.07.99 5.75-5.17-2.72-5.15 2.72.98-5.75-4.18-4.07L32.2 27zm17.48 0L54.84 27l5.77.84-4.18 4.07.99 5.75-5.16-2.72-5.16 2.72.99-5.75-4.18-4.07 5.77-.84zm17.41 0L72.25 27l5.77.84-4.18 4.07.99 5.75-5.16-2.72-5.16 2.72.98-5.75-4.17-4.07 5.77-.84zm17.47 0L89.72 27l5.77.84-4.17 4.07.98 5.75-5.16-2.72-5.16 2.72.99-5.75-4.18-4.07 5.77-.84z"/><path fill="#FAA91A" d="M104.62 21.78L107.2 27l5.77.84-4.18 4.07.99 5.75-5.16-2.72-5.16 2.72.98-5.75-4.17-4.07 5.77-.84z"/><path fill="#FFCC05" d="M126.56 17.37a1.28 1.28 0 01.14-2.43l6.09-1.52a1.28 1.28 0 11.62 2.48l-6.09 1.52a1.27 1.27 0 01-.76-.05zm-7.2-6.94a1.28 1.28 0 01-.79-1.49l1.68-7a1.28 1.28 0 112.48.6l-1.68 7a1.28 1.28 0 01-1.57.96l-.12-.07zm4.9 2.33a1.28 1.28 0 01-.5-2l4.72-5.41a1.28 1.28 0 011.91 1.7l-4.77 5.36a1.28 1.28 0 01-1.36.35z"/></g></svg>