<svg xmlns="http://www.w3.org/2000/svg" width="144" height="132" viewBox="0 0 144 132"><g fill="none"><path fill="#92D0EE" d="M142.06 107.84H1"/><path fill="#123456" d="M142.06 108.84H1a1 1 0 110-2h141.06a1 1 0 110 2z"/><path fill="#92D0EE" d="M126.04 56.16h-97.2l12.22-32.2a12.73 12.73 0 0112.21-8.34h48.35a12.73 12.73 0 0112.21 8.34l12.21 32.2z"/><path fill="#123456" d="M126.03 57.17H28.84a1 1 0 01-.94-1.35l12.22-32.2a13.67 13.67 0 0113.14-9h48.35a13.68 13.68 0 0113.16 9l12.2 32.16a1 1 0 01-.93 1.35l-.01.04zm-95.75-2h94.3l-11.7-30.84a11.69 11.69 0 00-11.27-7.7H53.26A11.68 11.68 0 0042 24.29L30.28 55.17z"/><path fill="#D9F0F9" d="M121.03 55.87H33.84l11-28.47a11.42 11.42 0 0111-7.49h43.37a11.42 11.42 0 0111 7.49l10.82 28.47z"/><path fill="#FFF" d="M69.51 53.83l16.488-34.978 4.523 2.132-16.49 34.978zm12.534.794l16.49-34.978 1.808.853-16.489 34.978zm-17.199.045l16.501-34.972.904.426-16.5 34.973z" opacity=".3"/><path fill="#123456" d="M121.03 56.87H33.84a1 1 0 01-.93-1.33l11-28.47a12.36 12.36 0 0111.88-8.13h43.37a12.37 12.37 0 0111.9 8.17l10.91 28.43a1 1 0 01-.93 1.36l-.01-.03zm-85.74-2h84.24l-10.39-27.11a10.39 10.39 0 00-10-6.84H55.75a10.38 10.38 0 00-10 6.8L35.29 54.87z"/><path fill="#92D0EE" d="M117.08 92.2h16v6.65a8 8 0 11-16 0V92.2z"/><path fill="#123456" d="M125.07 107.84a9 9 0 01-9-9v-6.65a1 1 0 011-1h16a1 1 0 011 1v6.65a9 9 0 01-9 9zm-7-14.64v5.65a7 7 0 0014 0V93.2h-14z"/><path fill="#92D0EE" d="M132.53 88.14h-97.4a6.08 6.08 0 01-5.66-3.87l-2.49-6.42c0-13.117 10.633-23.75 23.75-23.75h67.49a20.43 20.43 0 0120.42 20.44v7.54a6.08 6.08 0 01-6.11 6.06z"/><path fill="#123456" d="M132.53 89.14h-97.4a7 7 0 01-6.6-4.51l-2.49-6.42a1 1 0 01-.07-.36c.017-13.666 11.094-24.739 24.76-24.75h67.49c11.83.017 21.414 9.61 21.42 21.44v7.54a7.08 7.08 0 01-7.11 7.06zM27.97 77.66l2.43 6.24a5 5 0 004.73 3.24h97.4a5.08 5.08 0 005.08-5.08v-7.52c-.011-10.726-8.704-19.419-19.43-19.43H50.73c-12.484.01-22.634 10.067-22.76 22.55z"/><rect width="125.55" height="8.23" x="15.34" y="83.97" fill="#D9F0F9" rx="4.11"/><path fill="#123456" d="M136.78 93.2H19.45a5.115 5.115 0 110-10.23h117.33a5.115 5.115 0 010 10.23zM19.45 84.97a3.115 3.115 0 100 6.23h117.33a3.115 3.115 0 100-6.23H19.45z"/><path fill="#D9F0F9" d="M115.5 77.5H91.98"/><path fill="#123456" d="M115.53 78.54H91.98a1 1 0 010-2h23.55a1 1 0 110 2zm-6.55-5.86H69.05a1 1 0 010-2h39.94a1.84 1.84 0 001.83-1.83v-2.08a1 1 0 01.22-.63l10-12.35a1 1 0 111.55 1.26l-9.8 12.08v1.72a3.84 3.84 0 01-3.81 3.83z"/><path fill="#92D0EE" d="M24.57 60.71h26.5c10.519.006 19.044 8.531 19.05 19.05v28.08H3.55V81.72a21 21 0 0121.02-21.01z"/><path fill="#123456" d="M70.12 108.84H3.53a1 1 0 01-1-1V81.72c0-12.15 9.85-22 22-22h26.5c11.078-.006 20.068 8.962 20.09 20.04v28.08a1 1 0 01-1 1zm-65.59-2h64.59V79.76c-.017-9.962-8.088-18.033-18.05-18.05H24.53c-11.046 0-20 8.954-20 20v25.13z"/><path fill="#D9F0F9" d="M28.85 51.79H45v9.73a8.06 8.06 0 01-16.12 0v-9.73h-.03z"/><path fill="#123456" d="M36.91 70.54a9.07 9.07 0 01-9.06-9v-9.75a1 1 0 011-1h16.12a1 1 0 011 1v9.75a9.07 9.07 0 01-9.06 9zm-7.06-17.75v8.75a7.06 7.06 0 0014.12 0v-8.75H29.85z"/><rect width="8.31" height="13.05" x="11.37" y="24.91" fill="#D9F0F9" rx="4.15"/><path fill="#123456" d="M15.53 38.96a5.16 5.16 0 01-5.15-5.15v-4.75a5.155 5.155 0 1110.31 0v4.75a5.16 5.16 0 01-5.16 5.15zm0-13.05a3.16 3.16 0 00-3.15 3.15v4.75a3.155 3.155 0 106.31 0v-4.75a3.16 3.16 0 00-3.16-3.15z"/><rect width="8.31" height="13.05" x="54.04" y="24.91" fill="#D9F0F9" rx="4.15"/><path fill="#123456" d="M58.19 38.96a5.16 5.16 0 01-5.15-5.15v-4.75a5.155 5.155 0 1110.31 0v4.75a5.16 5.16 0 01-5.16 5.15zm0-13.05a3.16 3.16 0 00-3.15 3.15v4.75a3.155 3.155 0 106.31 0v-4.75a3.16 3.16 0 00-3.16-3.15z"/><path fill="#92D0EE" d="M44.97 61.54l-8.06 8 10.89 4.19.73-12.7v-1.59a2.2 2.2 0 00-2.2-2.2h-1.36v4.3z"/><path fill="#123456" d="M47.8 74.77a1 1 0 01-.36-.07l-10.91-4.16a1 1 0 01-.35-1.64l7.77-7.77v-3.89a1 1 0 011-1h1.39a3.2 3.2 0 013.19 3.2v1.59l-.76 12.8a1 1 0 01-1 .94h.03zm-9.1-5.58l8.18 3.15.65-11.37v-1.53a1.2 1.2 0 00-1.2-1.2h-.39v3.3a1 1 0 01-.29.71l-6.95 6.94z"/><path fill="#92D0EE" d="M56.26 88.9l-14.07 32.5 12.65-1.73 11.45-26.43z"/><path fill="#123456" d="M42.19 122.4a1 1 0 01-.92-1.4l14.08-32.46a1 1 0 011.31-.52l10 4.34a1 1 0 01.52 1.32l-11.42 26.39a1 1 0 01-.78.59l-12.65 1.73-.14.01zm14.59-32.19l-13 30 10.34-1.41 10.82-25-8.16-3.59z"/><path fill="#289ED8" d="M66.29 93.24l-11.45 26.43 7.4 10.41 14.08-32.5z"/><path fill="#123456" d="M62.24 131.08a1 1 0 01-.81-.42l-7.4-10.41a1 1 0 01-.1-1l11.44-26.41a1 1 0 011.31-.52l10 4.34a1 1 0 01.52 1.32l-14.07 32.5a1 1 0 01-.81.6h-.08zm-6.25-11.54l6 8.51 13-30-8.18-3.51-10.82 25z"/><path fill="#92D0EE" d="M88.22 88.9l14.07 32.5-12.65-1.73-11.45-26.43z"/><path fill="#123456" d="M102.29 122.4h-.13l-12.63-1.74a1 1 0 01-.78-.59L77.27 93.64a1 1 0 01.52-1.32l10-4.34a1 1 0 011.32.52l14.07 32.5a1 1 0 01-.92 1.4h.03zm-12-3.64l10.34 1.41-13-30-8.1 3.59 10.76 25z"/><path fill="#289ED8" d="M78.19 93.24l11.45 26.43-7.4 10.41-14.08-32.5z"/><path fill="#123456" d="M82.24 131.08h-.1a1 1 0 01-.81-.6l-14.07-32.5a1 1 0 01.52-1.32l10-4.34a1 1 0 011.32.52l11.43 26.43a1 1 0 01-.1 1l-7.4 10.41a1 1 0 01-.79.4zm-12.76-33l13 30 6.05-8.54-10.86-25-8.19 3.54z"/><path fill="#FAA91A" d="M72.16 106.26c-13.819 0-25.453-10.337-27.08-24.06a27.27 27.27 0 1054.15 0c-1.626 13.72-13.255 24.055-27.07 24.06z"/><path fill="#FFCC05" d="M72.16 106.26c13.815-.005 25.444-10.34 27.07-24.06-1.648-13.703-13.273-24.015-27.075-24.015S46.728 68.497 45.08 82.2c1.627 13.723 13.261 24.06 27.08 24.06z"/><path fill="#123456" d="M72.16 113.69c-15.612 0-28.268-12.655-28.27-28.267-.002-15.611 12.652-28.27 28.263-28.273 15.612-.004 28.271 12.648 28.277 28.26-.011 15.61-12.66 28.263-28.27 28.28zm0-54.54a26.27 26.27 0 1026.27 26.26c-.017-14.502-11.768-26.253-26.27-26.27v.01z"/><path fill="#289ED8" d="M71.03 97.99a4 4 0 01-2.88-1.23l-8.69-9a4 4 0 115.76-5.55l5.42 5.63 8.45-11.3a4 4 0 116.44 4.73L74.24 96.38a4 4 0 01-3 1.6l-.21.01z"/><ellipse cx="36.87" cy="10.4" fill="#92D0EE" rx="25.76" ry="9.4"/><path fill="#123456" d="M36.87 20.81c-15 0-26.76-4.57-26.76-10.4S21.87 0 36.87 0c15 0 26.76 4.54 26.76 10.4S51.88 20.81 36.87 20.81zm0-18.81c-11.71 0-24.76 3.45-24.76 8.4s13 8.4 24.76 8.4c11.76 0 24.76-3.45 24.76-8.4S48.58 2 36.87 2z"/><path fill="#92D0EE" d="M28.85 61.54l8.06 8-10.89 4.23-.76-12.74v-1.59a2.2 2.2 0 012.2-2.2h1.39v4.3z"/><path fill="#123456" d="M26.02 74.77a1 1 0 01-1-.94l-.76-12.74v-1.65a3.2 3.2 0 013.2-3.2h1.39a1 1 0 011 1v3.86l7.77 7.77a1 1 0 01-.35 1.67l-10.89 4.17a1 1 0 01-.36.06zm1.44-16.53a1.2 1.2 0 00-1.2 1.2v1.59l.67 11.32 8.18-3.15-7-7a1 1 0 01-.29-.71v-3.25h-.36z"/><path fill="#92D0EE" d="M36.91 69.58l-.07 37.54"/><path fill="#123456" d="M36.84 108.12a1 1 0 01-1-1l.07-37.58a1 1 0 012 0l-.07 37.54a1 1 0 01-1 1.04z"/><path fill="#92D0EE" d="M15.76 77.37l-.07 29.75"/><path fill="#123456" d="M15.69 108.12a1 1 0 01-1-1l.07-29.75a1 1 0 012 0l-.07 29.75a1 1 0 01-1 1z"/><rect width="16.26" height="12.86" x="121.03" y="42.28" fill="#92D0EE" rx="4.32"/><path fill="#123456" d="M132.97 56.14h-7.62a5.33 5.33 0 01-5.32-5.32V46.6a5.33 5.33 0 015.32-5.32h7.62a5.33 5.33 0 015.32 5.32v4.22a5.33 5.33 0 01-5.32 5.32zm-7.62-12.86a3.32 3.32 0 00-3.32 3.32v4.22a3.32 3.32 0 003.32 3.32h7.62a3.32 3.32 0 003.32-3.32V46.6a3.32 3.32 0 00-3.32-3.32h-7.62z"/><path fill="#D9F0F9" d="M134.4 75.39v.15a4.91 4.91 0 01-5 4.64h-8.69a4.94 4.94 0 01-5-4.76v-.24a9.31 9.31 0 019.61-9.31 9.42 9.42 0 019.08 9.52z"/><path fill="#123456" d="M129.44 81.15h-8.69a6 6 0 01-6-5.73v-.27a10.31 10.31 0 0110.64-10.3 10.46 10.46 0 0110 10.57v.12a6 6 0 01-5.95 5.61zm-4.35-14.31a8.31 8.31 0 00-8.31 8.31v.22a4 4 0 004 3.78h8.69a3.93 3.93 0 004-3.68v-.11a8.43 8.43 0 00-8-8.52h-.38z"/><path fill="#D9F0F9" d="M17 18.82h39.44v17.91c0 10.741-8.699 19.453-19.44 19.47h-.52A19.47 19.47 0 0117 36.73V18.82z"/><path fill="#123456" d="M36.97 57.2h-.52c-11.302-.011-20.463-9.168-20.48-20.47V18.82a1 1 0 011-1h39.47a1 1 0 011 1v17.91c-.017 11.298-9.172 20.453-20.47 20.47zm-19-37.39v16.92c.011 10.2 8.28 18.464 18.48 18.47h.52c10.196-.011 18.459-8.274 18.47-18.47V19.82l-37.47-.01z"/><path fill="#92D0EE" d="M15.83 22.89l13.9 4.08a25.57 25.57 0 0014.29 0l14.19-4.1-20.74-6.8-21.64 6.82z"/><path fill="#123456" d="M36.92 29a26.55 26.55 0 01-7.48-1.08l-13.91-4.07a1 1 0 010-1.91l21.63-6.82a1 1 0 01.61 0l20.76 6.82a1 1 0 010 1.91l-14.19 4.1A26.55 26.55 0 0136.92 29zm-17.65-6.15L30.01 26a24.54 24.54 0 0013.74 0l11.08-3.2-17.37-5.7-18.19 5.75z"/><path fill="#D9F0F9" d="M58.22 22.89l-12.69-2.02a59 59 0 00-19.87.23l-9.8 1.79v-7.35l10.21-1.8a59 59 0 0119.83-.2l12.32 2v7.35z"/><path fill="#123456" d="M15.83 23.89a1 1 0 01-1-1v-7.35a1 1 0 01.82-1l10.24-1.83a59.91 59.91 0 0120.17-.17l12.32 2a1 1 0 01.84 1v7.32a1 1 0 01-1.16 1l-12.71-2a57.84 57.84 0 00-19.54.23l-9.8 1.79-.18.01zm20.41-4.75a60 60 0 019.43.75l11.55 1.84v-5.3l-11.48-1.89a57.88 57.88 0 00-19.49.16l-9.42 1.7v5.28l8.62-1.58a60 60 0 0110.79-.97v.01zm.51 29.21a13.31 13.31 0 01-8.6-3.29 1 1 0 011.38-1.42c.26.25 6.46 6.08 14.83-.09a1 1 0 011.17 1.61 14.73 14.73 0 01-8.78 3.19z"/><path fill="#D9F0F9" d="M22 80.16h10.65v3.09H22z"/><path fill="#123456" d="M32.66 84.24H22a1 1 0 01-1-1v-3.09a1 1 0 011-1h10.66a1 1 0 011 1v3.09a1 1 0 01-1 1zm-9.65-2h8.65v-1.09H23l.01 1.09z"/><path fill="#FFCC05" d="M117.43 16.22a1.28 1.28 0 01-.38-2.41l5.63-2.78a1.28 1.28 0 111.13 2.29l-5.63 2.78a1.27 1.27 0 01-.75.12zm-8.52-5.24a1.28 1.28 0 01-1.09-1.29l.16-7.16a1.28 1.28 0 112.55.01l-.16 7.16a1.28 1.28 0 01-1.31 1.25l-.15.03zm5.29 1.23a1.28 1.28 0 01-.93-1.89l3.52-6.26a1.28 1.28 0 012.23 1.25l-3.49 6.23a1.28 1.28 0 01-1.33.67z"/></g></svg>