<svg xmlns="http://www.w3.org/2000/svg" width="139" height="128" viewBox="0 0 139 128"><g fill="none" transform="translate(-1)"><rect width="94.35" height="43.74" x="24.67" y="82.92" fill="#92D0EE" rx="5.24"/><path fill="#D9F0F9" d="M106.32 114.04H70.74a.5.5 0 010-1h35.58a.5.5 0 010 1z"/><path fill="#2A9FD9" d="M114.6 121.16H29.1a4.21 4.21 0 01-4.42-4v5.51a4.21 4.21 0 004.42 4h85.51a4.21 4.21 0 004.42-4v-5.51a4.21 4.21 0 01-4.43 4z" opacity=".3"/><path fill="#123456" d="M113.78 127.66H29.91a6.25 6.25 0 01-6.24-6.24V88.16a6.25 6.25 0 016.24-6.24h83.87a6.25 6.25 0 016.24 6.24v33.26a6.25 6.25 0 01-6.24 6.24zM29.91 83.92a4.25 4.25 0 00-4.24 4.24v33.26a4.25 4.25 0 004.24 4.24h83.87a4.25 4.25 0 004.24-4.24V88.16a4.25 4.25 0 00-4.24-4.24H29.91z"/><rect width="32.17" height="32.17" x="30.85" y="88.9" fill="#D9F0F9" rx="4.53"/><path fill="#2A9FD9" d="M39.82 106.16a2.61 2.61 0 100 5.22 2.61 2.61 0 000-5.22zm0 3.4a.79.79 0 110-1.58.79.79 0 010 1.58z"/><path fill="#2A9FD9" d="M58.83 106.64l-.43-3.47a1.28 1.28 0 00-1.34-1.12l-.94.05-2.91-2.62a1.52 1.52 0 00-1-.39h-5.9a5.81 5.81 0 00-3.64 1.28l-3.29 2.65-4.43 1.11a1.28 1.28 0 00-1 1.24v1.28a.34.34 0 00-.34.34v1.69c0 .243.197.44.44.44h2.47v-.32a3.285 3.285 0 016.57 0 3.2 3.2 0 010 .32h6.92v-.32a3.285 3.285 0 016.57 0 3 3 0 010 .32h2.33a.44.44 0 00.44-.44v-1.59a.43.43 0 00-.52-.45zm-8.76-4.27l-8.24.42 1.58-1.27a4.81 4.81 0 013-1.06h3.64l.02 1.91zm1.37-.07v-1.84h.54a.75.75 0 01.5.19l1.68 1.51-2.72.14z"/><path fill="#2A9FD9" d="M53.24 106.16a2.61 2.61 0 100 5.22 2.61 2.61 0 000-5.22zm0 3.4a.79.79 0 110-1.58.79.79 0 010 1.58zm43.87-15.19H70.74a1 1 0 010-2H97.1a1 1 0 010 2h.01zm8.82 10.52H70.74a1 1 0 110-2h35.18a1 1 0 110 2h.01z"/><rect width="111.79" height="51.83" x="14.67" y="14.21" fill="#92D0EE" rx="5.24"/><path fill="#D9F0F9" d="M111.41 50.83H69.26a.5.5 0 110-1h42.16a.5.5 0 010 1h-.01z"/><path fill="#2A9FD9" d="M121.22 59.51H19.91a5 5 0 01-5.24-4.68v6.52a5 5 0 005.24 4.68h101.31a5 5 0 005.24-4.68v-6.52a5 5 0 01-5.24 4.68z" opacity=".3"/><path fill="#123456" d="M121.22 67.04H19.91a6.25 6.25 0 01-6.24-6.21V19.45a6.25 6.25 0 016.24-6.24h101.31a6.25 6.25 0 016.24 6.24v41.38a6.25 6.25 0 01-6.24 6.21zM19.91 15.21a4.25 4.25 0 00-4.24 4.24v41.38a4.25 4.25 0 004.24 4.24h101.31a4.25 4.25 0 004.24-4.24V19.45a4.25 4.25 0 00-4.24-4.24H19.91z"/><rect width="38.11" height="38.11" x="22" y="21.3" fill="#D9F0F9" rx="4.53"/><path fill="#2A9FD9" d="M32.61 41.75a3.09 3.09 0 10.02 6.18 3.09 3.09 0 00-.02-6.18zm0 4a.93.93 0 11.91-.92.94.94 0 01-.91.95v-.03z"/><path fill="#2A9FD9" d="M55.14 42.31l-.51-4.12a1.51 1.51 0 00-1.58-1.36l-1.11.06-3.42-3.06a1.8 1.8 0 00-1.21-.46h-7a6.89 6.89 0 00-4.32 1.52l-3.9 3.14-5.26 1.3a1.52 1.52 0 00-1.15 1.5v1.51a.4.4 0 00-.4.4v2c0 .287.233.52.52.52h3v-.38a3.89 3.89 0 017.72-.05 3.8 3.8 0 010 .38h8.2v-.38a3.89 3.89 0 117.78 0 3.54 3.54 0 010 .38h2.76a.52.52 0 00.52-.52v-1.86a.51.51 0 00-.64-.52zm-10.38-5.06l-9.76.49 1.87-1.5a5.7 5.7 0 013.58-1.26h4.31v2.27zm1.62-.08v-2.19h.63a.88.88 0 01.59.23l2 1.79-3.22.17z"/><path fill="#2A9FD9" d="M48.52 41.75a3.09 3.09 0 10.02 6.18 3.09 3.09 0 00-.02-6.18zm0 4a.93.93 0 11.93-.93.94.94 0 01-.93.96v-.03z"/><path fill="#FFCC05" d="M17.82 9.06a1.28 1.28 0 01-2.41-.4l-.89-6.21a1.28 1.28 0 112.53-.35l.87 6.22a1.27 1.27 0 01-.1.74zm-7.65 6.44a1.28 1.28 0 01-1.57.63l-6.75-2.4a1.28 1.28 0 11.86-2.41l6.74 2.4a1.28 1.28 0 01.78 1.63l-.06.15zm2.82-4.67a1.28 1.28 0 01-2.09.29L6.07 5.83a1.28 1.28 0 011.89-1.72l4.84 5.3c.347.39.422.952.19 1.42z"/><path fill="#D9F0F9" d="M78.1 59.21a4 4 0 011.83-5.15l-2.83.28-21.28 4.87c-3.27 2-4.27 6.34-4.16 11l22.86-10.65 3.58-.35z"/><path fill="#92D0EE" d="M80.64 53.72l-.44.19c-.09 0-.17.1-.26.14l.78-.08c-.04-.08-.05-.14-.08-.25zm4.8 49.84c-18.36-.41-28.12-15.27-28.12-15.27a39.91 39.91 0 01-2.25-3.53c-1.38-2.44-3.27-8.71-3.4-14.54l-1.32.61c-7.36 4.4-.38 14.77 2.1 19.16a39.88 39.88 0 002.25 3.53s9.82 14.85 28.12 15.31h46.28a2.51 2.51 0 002.5-2.5v-.34a2.49 2.49 0 00-1.78-2.38H85.43l.01-.05z"/><path fill="#D9F0F9" d="M128.98 103.47h-35a2.51 2.51 0 01-2.51-2.51v-.33a2.51 2.51 0 012.26-2.5h21.1a2.52 2.52 0 002.52-2.52v-.32a2.51 2.51 0 00-2.51-2.51H98.11a2.52 2.52 0 01-2.52-2.52v-.33a2.51 2.51 0 012.51-2.51h12a2.51 2.51 0 002.51-2.51v-.32a2.52 2.52 0 00-2.52-2.52h-8.4a3.55 3.55 0 01-2.89-1.79l-12-24.16c-.87-2-3-3.76-5.54-2.66l-.59.25c0 .09 0 .17.08.26l-.78.08a4 4 0 00-1.83 5.15l-3.62.36-22.86 10.65c.14 5.84 2 12.1 3.4 14.54a39.91 39.91 0 002.25 3.53s9.76 14.85 28.12 15.27h44.39a2.48 2.48 0 00-.72-.12l-.12.04z"/><path fill="#123456" d="M129.09 109.83H82.81a1 1 0 01-.25 0c-18.5-.54-28.28-15.09-28.69-15.71a40.68 40.68 0 01-2.29-3.59l-.7-1.22c-2.8-4.79-8.63-14.76-1-19.29h.09l24.09-11.37a1 1 0 01.33-.09l2.43-.24a5 5 0 013-5.33l1-.45a4.62 4.62 0 014.3.21 6.29 6.29 0 012.56 3l12 24.11a2.56 2.56 0 002 1.24h8.4a3.52 3.52 0 013.52 3.52v.32a3.52 3.52 0 01-3.51 3.51h-12a1.51 1.51 0 00-1.51 1.51v.33c0 .84.68 1.52 1.52 1.52h16.72a3.51 3.51 0 013.51 3.51v.32a3.52 3.52 0 01-3.52 3.52h-21a1.51 1.51 0 00-1.36 1.5v.33a1.51 1.51 0 001.51 1.51h35.12a3.51 3.51 0 013.5 3.5v.34a3.51 3.51 0 01-3.49 3.49zm-46-2h46a1.5 1.5 0 001.5-1.5v-.34a1.5 1.5 0 00-1.5-1.5H93.98a3.52 3.52 0 01-3.51-3.51v-.33a3.5 3.5 0 012.81-3.44 1 1 0 01.25-.05h21.34c.84 0 1.52-.68 1.52-1.52v-.32a1.51 1.51 0 00-1.51-1.51H98.11a3.52 3.52 0 01-3.52-3.52v-.33a3.51 3.51 0 013.51-3.51h12a1.51 1.51 0 001.51-1.51v-.32c0-.84-.68-1.52-1.52-1.52h-8.4a4.57 4.57 0 01-3.79-2.35l-12-24.16a4.4 4.4 0 00-1.74-2.08 2.66 2.66 0 00-2.5-.11l-1 .45a3 3 0 00-1.57 4 1 1 0 01-.82 1.39l-3.45.34-24 11.13c-5.37 3.26-1.9 10.25 1.78 16.54l.72 1.24a39 39 0 002.2 3.45c.12.17 9.74 14.45 27.33 14.85l.24.04z"/><path fill="#D9F0F9" d="M54.94 82.93L39.89 48.24a5.12 5.12 0 012.63-6.73 5.12 5.12 0 016.73 2.66l11 25.24"/><path fill="#123456" d="M54.94 83.93a1 1 0 01-.92-.6l-15.05-34.7a6.12 6.12 0 0111.22-4.87l11 25.24a1 1 0 01-1.83.8l-11-25.24a4.12 4.12 0 00-7.55 3.27l15.05 34.7a1 1 0 01-.52 1.3 1 1 0 01-.4.1z"/><path fill="#D9F0F9" d="M60.06 69.03l-1.75-4a5.12 5.12 0 012.66-6.73 5.12 5.12 0 016.73 2.66l2 4.55"/><path fill="#123456" d="M60.06 70.03a1 1 0 01-.92-.6l-1.75-4a6.126 6.126 0 1111.23-4.9l2 4.55a1 1 0 01-1.83.8l-2-4.55a4.12 4.12 0 00-7.55 3.28l1.75 4a1 1 0 01-.52 1.32 1 1 0 01-.41.1z"/><path fill="#D9F0F9" d="M69.67 65.48l-2-4.55a5.12 5.12 0 012.66-6.73 5.12 5.12 0 016.75 2.63l2.37 5.45"/><path fill="#123456" d="M69.67 66.48a1 1 0 01-.92-.6l-2-4.55a6.12 6.12 0 1111.22-4.87l2.37 5.45a1 1 0 11-1.83.8l-2.37-5.45a4.12 4.12 0 10-7.52 3.27l2 4.55a1 1 0 01-.95 1.4z"/><rect width="7.03" height="5.19" x="122.35" y="92.92" fill="#D9F0F9" rx="2.44"/><path fill="#123456" d="M126.93 99.11h-2.14a3.45 3.45 0 01-3.44-3.44v-.3a3.45 3.45 0 013.44-3.44h2.14a3.45 3.45 0 013.44 3.44v.3a3.45 3.45 0 01-3.44 3.44zm-2.14-5.19a1.44 1.44 0 00-1.44 1.44v.3a1.45 1.45 0 001.44 1.44h2.14a1.45 1.45 0 001.44-1.44v-.3a1.45 1.45 0 00-1.44-1.44h-2.14z"/><path fill="#D9F0F9" d="M100.52 27.09H69.26a.5.5 0 110-1h31.26a.5.5 0 010 1zm10.42 12.46H69.26a.5.5 0 110-1h41.68a.5.5 0 010 1z"/><path fill="#FAA91A" d="M110.7 50.73c-13.865.015-25.547-10.351-27.18-24.12a27.34 27.34 0 1054.29 0c-1.63 13.742-13.271 24.1-27.11 24.12z"/><path fill="#FFCC05" d="M110.7 50.73c13.85-.005 25.509-10.366 27.14-24.12-1.61-13.772-13.28-24.155-27.145-24.155-13.866 0-25.534 10.383-27.145 24.155 1.632 13.758 13.296 24.12 27.15 24.12z"/><path fill="#123456" d="M110.7 58.17c-15.652 0-28.34-12.688-28.34-28.34S95.048 1.49 110.7 1.49s28.34 12.688 28.34 28.34c-.017 15.645-12.695 28.323-28.34 28.34zm0-54.68c-14.547 0-26.34 11.793-26.34 26.34s11.793 26.34 26.34 26.34 26.34-11.793 26.34-26.34c-.017-14.54-11.8-26.323-26.34-26.34z"/><path fill="#2A9FD9" d="M113.36 45.02a2 2 0 010-4 11.41 11.41 0 10-10.84-15.07 2 2 0 11-3.79-1.28c2.517-7.46 10.25-11.825 17.937-10.127 7.687 1.698 12.86 8.914 12.002 16.74-.86 7.826-7.476 13.748-15.349 13.737h.04z"/><path fill="#2A9FD9" d="M112.76 33.38a1 1 0 01-1-1V21.05a1 1 0 112 0v9l4.35-4.08a1.022 1.022 0 011.41 1.48l-6 5.66a1 1 0 01-.76.27zm-11.63-.65h-6.61a1.5 1.5 0 010-3h6.64a1.5 1.5 0 010 3h-.03zm6.59 11.79h-8a1.5 1.5 0 010-3h8a1.5 1.5 0 010 3zm-1.68-5.9H93.36a1.5 1.5 0 010-3h12.68a1.5 1.5 0 010 3z"/></g></svg>